<svg width="20" height="20" viewBox="0 0 20 20" fill="none" xmlns="http://www.w3.org/2000/svg">
<path d="M8.58444 14.78C9.95906 14.7797 11.2941 14.3195 12.3769 13.4727L15.7814 16.8772L16.8764 15.7821L13.472 12.3777C14.3192 11.2947 14.7797 9.95942 14.78 8.58444C14.78 5.16837 12.0005 2.38889 8.58444 2.38889C5.16837 2.38889 2.38889 5.16837 2.38889 8.58444C2.38889 12.0005 5.16837 14.78 8.58444 14.78ZM8.58444 3.93777C11.1471 3.93777 13.2311 6.0218 13.2311 8.58444C13.2311 11.1471 11.1471 13.2311 8.58444 13.2311C6.0218 13.2311 3.93777 11.1471 3.93777 8.58444C3.93777 6.0218 6.0218 3.93777 8.58444 3.93777Z" fill="#13413B"/>
</svg>
