<?xml version="1.0" encoding="UTF-8" standalone="no"?>
<!-- Created with Inkscape (http://www.inkscape.org/) -->

<svg
   width="3.7303672in"
   height="3.7303672in"
   viewBox="0 0 358.11525 358.11525"
   version="1.1"
   id="svg1"
   xmlns="http://www.w3.org/2000/svg"
   xmlns:svg="http://www.w3.org/2000/svg">
  <defs
     id="defs1">
    <linearGradient
       id="swatch3">
      <stop
         style="stop-color:#5b7a4b;stop-opacity:1;"
         offset="0"
         id="stop3" />
    </linearGradient>
  </defs>
  <g
     id="layer1"
     transform="translate(-580.94751,-28.546181)">
    <path
       d="m 760.00611,28.546181 a 179.05792,179.05792 0 0 0 -179.0586,179.058589 179.05792,179.05792 0 0 0 5.70117,42.38281 h 117.87696 c 13.96333,0 25.20508,11.24174 25.20508,25.20508 0,13.96334 -11.24175,25.20313 -25.20508,25.20313 h -96.97461 a 179.05792,179.05792 0 0 0 152.45508,86.26562 179.05792,179.05792 0 0 0 179.05664,-179.05664 179.05792,179.05792 0 0 0 -6.53711,-47.78516 H 816.19165 c -13.96333,0 -25.20507,-11.24174 -25.20508,-25.20507 0,-13.96335 11.24175,-25.20313 25.20508,-25.20313 h 93.4961 A 179.05792,179.05792 0 0 0 760.00611,28.546181 Z m 3.84179,93.634759 A 11.814672,11.289575 0 0 1 775.66236,133.47 11.814672,11.289575 0 0 1 763.8479,144.75907 11.814672,11.289575 0 0 1 752.03345,133.47 11.814672,11.289575 0 0 1 763.8479,122.18094 Z m -1.05078,140.19922 a 11.814672,11.289575 0 0 1 11.81445,11.29102 11.814672,11.289575 0 0 1 -11.81445,11.28906 11.814672,11.289575 0 0 1 -11.81445,-11.28906 11.814672,11.289575 0 0 1 11.81445,-11.29102 z"
       style="fill:#248062;fill-opacity:1"
       id="path5" />
  </g>
</svg>
