<svg width="37" height="37" viewBox="0 0 37 37" fill="none" xmlns="http://www.w3.org/2000/svg">
<mask id="mask0_116_2884" style="mask-type:luminance" maskUnits="userSpaceOnUse" x="0" y="0" width="37" height="37">
<path d="M37 18.5C37 8.28273 28.7173 0 18.5 0C8.28273 0 0 8.28273 0 18.5C0 28.7173 8.28273 37 18.5 37C28.7173 37 37 28.7173 37 18.5Z" fill="white"/>
</mask>
<g mask="url(#mask0_116_2884)">
<path d="M37 0H0V37H37V0Z" fill="#C0AEDE"/>
<path d="M21.3907 26.64V30.0625C21.3907 30.8291 21.0862 31.5644 20.5441 32.1065C20.002 32.6486 19.2667 32.9531 18.5001 32.9531C17.7335 32.9531 16.9982 32.6486 16.4561 32.1065C15.914 31.5644 15.6095 30.8291 15.6095 30.0625V26.64C14.4508 26.1954 13.4094 25.491 12.5656 24.581C11.7217 23.6709 11.0977 22.5795 10.7417 21.3906H10.6954C10.0323 21.3879 9.39533 21.1321 8.91453 20.6755C8.43373 20.2189 8.14543 19.5959 8.10853 18.9339C8.07162 18.2718 8.28891 17.6207 8.71598 17.1135C9.14306 16.6062 9.74769 16.2812 10.4063 16.2048V15.6094C10.4063 13.4628 11.2591 11.4041 12.7769 9.88623C14.2948 8.36836 16.3535 7.51563 18.5001 7.51562C20.6467 7.51563 22.7054 8.36836 24.2232 9.88623C25.7411 11.4041 26.5938 13.4628 26.5938 15.6094V16.2048C27.2569 16.2812 27.8653 16.6094 28.2931 17.1217C28.721 17.634 28.9355 18.2911 28.8925 18.9572C28.8494 19.6233 28.552 20.2473 28.0617 20.7002C27.5715 21.1531 26.9259 21.4003 26.2585 21.3906C25.9025 22.5795 25.2785 23.6709 24.4346 24.581C23.5907 25.491 22.5494 26.1954 21.3907 26.64Z" fill="#E7A391"/>
<mask id="mask1_116_2884" style="mask-type:luminance" maskUnits="userSpaceOnUse" x="8" y="7" width="21" height="26">
<path d="M21.3907 26.64V30.0625C21.3907 30.8291 21.0862 31.5644 20.5441 32.1065C20.002 32.6486 19.2667 32.9531 18.5001 32.9531C17.7335 32.9531 16.9982 32.6486 16.4561 32.1065C15.914 31.5644 15.6095 30.8291 15.6095 30.0625V26.64C14.4508 26.1954 13.4094 25.491 12.5656 24.581C11.7217 23.6709 11.0977 22.5795 10.7417 21.3906H10.6954C10.0323 21.3879 9.39533 21.1321 8.91453 20.6755C8.43373 20.2189 8.14543 19.5959 8.10853 18.9339C8.07162 18.2718 8.28891 17.6207 8.71598 17.1135C9.14306 16.6062 9.74769 16.2812 10.4063 16.2048V15.6094C10.4063 13.4628 11.2591 11.4041 12.7769 9.88623C14.2948 8.36836 16.3535 7.51563 18.5001 7.51562C20.6467 7.51563 22.7054 8.36836 24.2232 9.88623C25.7411 11.4041 26.5938 13.4628 26.5938 15.6094V16.2048C27.2569 16.2812 27.8653 16.6094 28.2931 17.1217C28.721 17.634 28.9355 18.2911 28.8925 18.9572C28.8494 19.6233 28.552 20.2473 28.0617 20.7002C27.5715 21.1531 26.9259 21.4003 26.2585 21.3906C25.9025 22.5795 25.2785 23.6709 24.4346 24.581C23.5907 25.491 22.5494 26.1954 21.3907 26.64Z" fill="white"/>
</mask>
<g mask="url(#mask1_116_2884)">
<g style="mix-blend-mode:overlay" opacity="0.36">
<path d="M18.5 7.51562C20.6466 7.51562 22.7053 8.36836 24.2231 9.88623C25.741 11.4041 26.5938 13.4628 26.5938 15.6094V19.0781C26.5938 21.2247 25.741 23.2834 24.2231 24.8013C22.7053 26.3191 20.6466 27.1719 18.5 27.1719C16.3534 27.1719 14.2947 26.3191 12.7769 24.8013C11.259 23.2834 10.4062 21.2247 10.4062 19.0781V15.6094C10.4062 13.4628 11.259 11.4041 12.7769 9.88623C14.2947 8.36836 16.3534 7.51563 18.5 7.51562Z" fill="white"/>
</g>
</g>
<path fill-rule="evenodd" clip-rule="evenodd" d="M13.875 16.4766C13.875 16.5904 13.8974 16.7032 13.941 16.8084C13.9846 16.9136 14.0485 17.0092 14.129 17.0898C14.2095 17.1703 14.3051 17.2342 14.4103 17.2777C14.5155 17.3213 14.6283 17.3438 14.7422 17.3438C14.8561 17.3438 14.9688 17.3213 15.074 17.2777C15.1793 17.2342 15.2749 17.1703 15.3554 17.0898C15.4359 17.0092 15.4998 16.9136 15.5434 16.8084C15.5869 16.7032 15.6094 16.5904 15.6094 16.4766C15.6094 16.2466 15.518 16.026 15.3554 15.8634C15.1928 15.7007 14.9722 15.6094 14.7422 15.6094C14.5122 15.6094 14.2916 15.7007 14.129 15.8634C13.9664 16.026 13.875 16.2466 13.875 16.4766ZM21.3906 16.4766C21.3906 16.7066 21.482 16.9271 21.6446 17.0898C21.8072 17.2524 22.0278 17.3438 22.2578 17.3438C22.4878 17.3438 22.7084 17.2524 22.871 17.0898C23.0336 16.9271 23.125 16.7066 23.125 16.4766C23.125 16.2466 23.0336 16.026 22.871 15.8634C22.7084 15.7007 22.4878 15.6094 22.2578 15.6094C22.0278 15.6094 21.8072 15.7007 21.6446 15.8634C21.482 16.026 21.3906 16.2466 21.3906 16.4766Z" fill="#1B0640"/>
<path d="M18.5001 2.60157C18.284 2.60061 18.072 2.66022 17.888 2.77365C17.7041 2.88707 17.5556 3.04977 17.4595 3.24329C17.3109 3.08782 17.122 2.97685 16.9138 2.92286C16.7057 2.86886 16.4866 2.87398 16.2812 2.93765C16.0758 3.00131 15.8922 3.12098 15.7511 3.28323C15.61 3.44548 15.5169 3.64387 15.4823 3.85611C15.2945 3.75066 15.081 3.69977 14.8658 3.70916C14.6506 3.71855 14.4424 3.78786 14.2645 3.90926C14.0866 4.03066 13.9461 4.19934 13.8589 4.39628C13.7718 4.59323 13.7413 4.8106 13.771 5.02392C13.5608 4.97913 13.3423 4.99382 13.14 5.06634C12.9377 5.13886 12.7595 5.26633 12.6257 5.43445C12.4918 5.60258 12.4074 5.80469 12.382 6.01811C12.3566 6.23153 12.3911 6.44781 12.4818 6.64267C12.2679 6.66164 12.0634 6.73985 11.8914 6.86852C11.7194 6.99718 11.5866 7.17122 11.508 7.37111C11.4294 7.57101 11.408 7.78886 11.4462 8.00023C11.4844 8.21161 11.5808 8.40815 11.7245 8.56782C11.5236 8.64764 11.349 8.78219 11.2207 8.9562C11.0924 9.1302 11.0155 9.33669 10.9986 9.55223C10.9818 9.76776 11.0257 9.98371 11.1254 10.1755C11.2251 10.3674 11.3765 10.5274 11.5626 10.6375C11.365 10.7995 11.2267 11.0224 11.1692 11.2713C11.1116 11.5202 11.1382 11.7812 11.2446 12.0134C11.9147 10.6635 12.9484 9.52753 14.2293 8.73337C15.5101 7.9392 16.9873 7.51842 18.4943 7.51842C20.0014 7.51842 21.4785 7.9392 22.7594 8.73337C24.0402 9.52753 25.0739 10.6635 25.744 12.0134C25.8518 11.7824 25.8802 11.5222 25.8247 11.2734C25.7693 11.0245 25.6332 10.801 25.4376 10.6375C25.6239 10.5279 25.7757 10.3683 25.8758 10.1768C25.9759 9.98529 26.0204 9.76955 26.0042 9.55405C25.9879 9.33856 25.9116 9.13193 25.7839 8.95761C25.6561 8.78329 25.4821 8.64825 25.2815 8.56782C25.425 8.40853 25.5214 8.21247 25.5599 8.00155C25.5984 7.79063 25.5775 7.57315 25.4995 7.37343C25.4216 7.1737 25.2896 6.99959 25.1184 6.87054C24.9472 6.7415 24.7434 6.6626 24.53 6.64267C24.6212 6.44731 24.656 6.23033 24.6304 6.01623C24.6048 5.80214 24.5199 5.59946 24.3852 5.43109C24.2505 5.26272 24.0714 5.13537 23.8682 5.06342C23.6649 4.99147 23.4456 4.97779 23.235 5.02392C23.2647 4.8106 23.2342 4.59323 23.1471 4.39628C23.0599 4.19934 22.9194 4.03066 22.7415 3.90926C22.5636 3.78786 22.3554 3.71855 22.1402 3.70916C21.925 3.69977 21.7115 3.75066 21.5237 3.85611C21.4899 3.64267 21.397 3.44297 21.2555 3.27966C21.114 3.11635 20.9295 2.99596 20.7231 2.93216C20.5166 2.86835 20.2964 2.86368 20.0874 2.91868C19.8784 2.97367 19.689 3.08613 19.5407 3.24329C19.4438 3.05085 19.295 2.88934 19.1111 2.77697C18.9272 2.6646 18.7156 2.60586 18.5001 2.60736V2.60157Z" fill="#362C47"/>
<path d="M26.5533 14.8174C25.9398 13.3402 24.9023 12.0779 23.5719 11.1899C22.2414 10.3019 20.6777 9.82805 19.0782 9.82815H17.9219C16.3224 9.82805 14.7587 10.3019 13.4282 11.1899C12.0978 12.0779 11.0603 13.3402 10.4468 14.8174C10.6472 12.8208 11.5821 10.9698 13.0702 9.62359C14.5583 8.2774 16.4934 7.53198 18.5001 7.53198C20.5067 7.53198 22.4418 8.2774 23.9299 9.62359C25.418 10.9698 26.3529 12.8208 26.5533 14.8174Z" fill="#F55D81"/>
<path d="M15.6094 28.3281V30.0625C15.6094 30.8291 15.9139 31.5644 16.456 32.1065C16.9981 32.6486 17.7334 32.9531 18.5 32.9531C19.2666 32.9531 20.0019 32.6486 20.544 32.1065C21.0861 31.5644 21.3906 30.8291 21.3906 30.0625V28.3281L25.2352 29.5133C26.2981 29.8408 27.2282 30.5003 27.8889 31.3951C28.5496 32.2899 28.9061 33.3729 28.9062 34.4852V37H8.09375V34.4852C8.09388 33.3729 8.45044 32.2899 9.11113 31.3951C9.77182 30.5003 10.7019 29.8408 11.7648 29.5133L15.6094 28.3281Z" fill="#F3B63A"/>
<g style="mix-blend-mode:overlay" opacity="0.4">
<path d="M12.7188 29.2185L11.7648 29.5076C11.2827 29.6582 10.825 29.8783 10.4062 30.1608V37.0001H12.7188V29.2185ZM15.0312 37.0001H17.3438V33.9418C16.3769 33.6527 15.5525 33.0137 15.0312 32.1496V37.0001ZM19.6562 37.0001H21.9688V32.1438C21.4486 33.0101 20.624 33.6512 19.6562 33.9418V37.0058V37.0001ZM24.2812 37.0001H26.5938V30.1551C26.1747 29.8745 25.717 29.6564 25.2352 29.5076L24.2812 29.2243V37.0001Z" fill="#F6F1EE"/>
</g>
<g style="mix-blend-mode:lighten" opacity="0.17">
<path d="M8.325 32.9531C8.59776 32.0657 9.10274 31.2673 9.78766 30.6406H14.4936C14.6197 31.5196 15.0322 32.3324 15.6672 32.9531H8.325ZM28.9062 35.2656V37H8.09375V35.2656H28.9062ZM27.2123 30.6406C27.8973 31.2673 28.4022 32.0657 28.675 32.9531H21.3328C21.9678 32.3324 22.3803 31.5196 22.5064 30.6406H27.2123Z" fill="white"/>
</g>
<path d="M16.1875 24.2061C16.1215 24.1682 16.0636 24.1176 16.0171 24.0572C15.9706 23.9969 15.9364 23.928 15.9165 23.8544C15.8967 23.7809 15.8915 23.7041 15.9013 23.6286C15.9111 23.553 15.9357 23.4802 15.9736 23.4141C16.0116 23.348 16.0622 23.2901 16.1225 23.2436C16.1829 23.1971 16.2518 23.163 16.3253 23.1431C16.3989 23.1232 16.4756 23.1181 16.5512 23.1279C16.6267 23.1377 16.6996 23.1622 16.7657 23.2002C17.2892 23.518 17.8876 23.6916 18.5 23.7032C19.1124 23.6916 19.7108 23.518 20.2344 23.2002C20.3005 23.1622 20.3733 23.1377 20.4489 23.1279C20.5244 23.1181 20.6012 23.1232 20.6747 23.1431C20.7483 23.163 20.8172 23.1971 20.8775 23.2436C20.9379 23.2901 20.9885 23.348 21.0264 23.4141C21.0644 23.4802 21.089 23.553 21.0988 23.6286C21.1086 23.7041 21.1034 23.7809 21.0835 23.8544C21.0637 23.928 21.0295 23.9969 20.983 24.0572C20.9365 24.1176 20.8786 24.1682 20.8125 24.2061C20.1127 24.6238 19.315 24.8492 18.5 24.8594C17.6851 24.8492 16.8873 24.6238 16.1875 24.2061Z" fill="#1B0640"/>
<g style="mix-blend-mode:overlay" opacity="0.36">
<path d="M16.9331 19.7951C16.9124 19.7406 16.9029 19.6825 16.9051 19.6242C16.9073 19.5659 16.9213 19.5087 16.9462 19.456C16.9711 19.4032 17.0063 19.356 17.0498 19.3172C17.0934 19.2784 17.1443 19.2488 17.1995 19.2301C17.2548 19.2114 17.3132 19.2041 17.3714 19.2085C17.4295 19.213 17.4862 19.2291 17.5379 19.2559C17.5897 19.2828 17.6355 19.3198 17.6727 19.3647C17.7098 19.4097 17.7375 19.4617 17.7541 19.5176C17.8871 19.9223 18.1125 20.0957 18.5056 20.0957C18.8872 20.0957 19.1127 19.9223 19.2456 19.5176C19.2622 19.4617 19.2899 19.4097 19.327 19.3647C19.3642 19.3198 19.41 19.2828 19.4618 19.2559C19.5136 19.2291 19.5702 19.213 19.6284 19.2085C19.6865 19.2041 19.745 19.2114 19.8002 19.2301C19.8554 19.2488 19.9064 19.2784 19.9499 19.3172C19.9934 19.356 20.0287 19.4032 20.0535 19.456C20.0784 19.5087 20.0924 19.5659 20.0946 19.6242C20.0969 19.6825 20.0873 19.7406 20.0666 19.7951C19.8238 20.5467 19.2746 20.9571 18.5056 20.9571C17.7367 20.9571 17.1817 20.5467 16.9389 19.7951H16.9331Z" fill="#F6F1EE"/>
</g>
</g>
</svg>
